<svg width="100" height="36" viewBox="0 0 100 36" fill="none" xmlns="http://www.w3.org/2000/svg">
<rect width="100" height="36" rx="8" fill="black"/>
<path d="M15.7157 23L12.3077 14.376H14.8037L16.9477 19.8L19.0917 14.376H21.5877L18.1797 23H15.7157ZM30.2267 21.752C29.256 22.6693 28.1147 23.128 26.8027 23.128C25.5014 23.128 24.424 22.728 23.5707 21.928C22.7174 21.1173 22.2907 20.0347 22.2907 18.68C22.2907 17.3253 22.7227 16.248 23.5867 15.448C24.4614 14.648 25.4907 14.248 26.6747 14.248C27.8587 14.248 28.8614 14.6053 29.6827 15.32C30.5147 16.0347 30.9307 17.016 30.9307 18.264V19.544H24.6587C24.7334 20.0133 24.9787 20.3973 25.3947 20.696C25.8107 20.9947 26.28 21.144 26.8027 21.144C27.6454 21.144 28.3387 20.8613 28.8827 20.296L30.2267 21.752ZM28.4987 17.832C28.4454 17.32 28.2534 16.9253 27.9227 16.648C27.592 16.3707 27.1867 16.232 26.7067 16.232C26.2374 16.232 25.8054 16.376 25.4107 16.664C25.016 16.952 24.7867 17.3413 24.7227 17.832H28.4987ZM37.1893 16.504C36.4747 16.504 35.9413 16.76 35.5893 17.272C35.2373 17.7733 35.0613 18.44 35.0613 19.272V23H32.6613V14.392H35.0613V15.528C35.3707 15.176 35.7547 14.8773 36.2133 14.632C36.6827 14.3867 37.1573 14.2587 37.6373 14.248L37.6533 16.504H37.1893ZM46.3222 16.12V19.976C46.3222 20.3067 46.4075 20.568 46.5782 20.76C46.7489 20.9413 46.9515 21.032 47.1862 21.032C47.6342 21.032 48.0129 20.8293 48.3222 20.424L49.2182 22.104C48.4715 22.7867 47.6822 23.128 46.8502 23.128C46.0289 23.128 45.3302 22.856 44.7542 22.312C44.1889 21.768 43.9062 21.0267 43.9062 20.088V16.12H42.8982V14.392H43.9062V11.816H46.3222V14.392H48.4022V16.12H46.3222ZM52.3313 18.696C52.3313 19.4 52.5287 19.976 52.9233 20.424C53.3287 20.8613 53.8407 21.08 54.4593 21.08C55.0887 21.08 55.6007 20.8613 55.9953 20.424C56.4007 19.976 56.6033 19.4 56.6033 18.696C56.6033 17.992 56.4007 17.416 55.9953 16.968C55.6007 16.52 55.0887 16.296 54.4593 16.296C53.8407 16.296 53.3287 16.52 52.9233 16.968C52.5287 17.416 52.3313 17.992 52.3313 18.696ZM59.0193 18.696C59.0193 19.944 58.5873 20.9947 57.7233 21.848C56.8593 22.7013 55.7713 23.128 54.4593 23.128C53.158 23.128 52.0753 22.7013 51.2113 21.848C50.3473 20.9947 49.9153 19.944 49.9153 18.696C49.9153 17.448 50.3473 16.3973 51.2113 15.544C52.0753 14.68 53.158 14.248 54.4593 14.248C55.7713 14.248 56.8593 14.68 57.7233 15.544C58.5873 16.3973 59.0193 17.448 59.0193 18.696ZM64.242 23.128C63.2286 23.128 62.322 22.696 61.522 21.832C60.722 20.968 60.322 19.896 60.322 18.616C60.322 17.336 60.7113 16.2907 61.49 15.48C62.2686 14.6587 63.1806 14.248 64.226 14.248C65.2713 14.248 66.1246 14.616 66.786 15.352V11.128H69.186V23H66.786V21.864C66.114 22.7067 65.266 23.128 64.242 23.128ZM62.738 18.712C62.738 19.4053 62.946 19.976 63.362 20.424C63.778 20.8613 64.2633 21.08 64.818 21.08C65.3726 21.08 65.842 20.8613 66.226 20.424C66.6206 19.976 66.818 19.4053 66.818 18.712C66.818 18.008 66.6206 17.4267 66.226 16.968C65.842 16.4987 65.3673 16.264 64.802 16.264C64.2366 16.264 63.7513 16.4987 63.346 16.968C62.9406 17.4373 62.738 18.0187 62.738 18.712ZM73.3782 18.696C73.3782 19.4 73.5755 19.976 73.9702 20.424C74.3755 20.8613 74.8875 21.08 75.5062 21.08C76.1355 21.08 76.6475 20.8613 77.0422 20.424C77.4475 19.976 77.6502 19.4 77.6502 18.696C77.6502 17.992 77.4475 17.416 77.0422 16.968C76.6475 16.52 76.1355 16.296 75.5062 16.296C74.8875 16.296 74.3755 16.52 73.9702 16.968C73.5755 17.416 73.3782 17.992 73.3782 18.696ZM80.0662 18.696C80.0662 19.944 79.6342 20.9947 78.7702 21.848C77.9062 22.7013 76.8182 23.128 75.5062 23.128C74.2049 23.128 73.1222 22.7013 72.2582 21.848C71.3942 20.9947 70.9622 19.944 70.9622 18.696C70.9622 17.448 71.3942 16.3973 72.2582 15.544C73.1222 14.68 74.2049 14.248 75.5062 14.248C76.8182 14.248 77.9062 14.68 78.7702 15.544C79.6342 16.3973 80.0662 17.448 80.0662 18.696ZM88.2507 20.328C88.2507 21.1707 87.936 21.848 87.3067 22.36C86.688 22.872 85.8987 23.128 84.9387 23.128C84.2987 23.128 83.632 23.016 82.9387 22.792C82.2454 22.5573 81.6214 22.216 81.0667 21.768L82.1227 20.264C83.0187 20.9573 83.9734 21.304 84.9867 21.304C85.296 21.304 85.5414 21.2453 85.7227 21.128C85.904 21 85.9947 20.8347 85.9947 20.632C85.9947 20.4293 85.8667 20.2427 85.6107 20.072C85.3654 19.9013 85.0027 19.7413 84.5227 19.592C84.0534 19.4427 83.6907 19.3147 83.4347 19.208C83.1894 19.1013 82.9067 18.9467 82.5867 18.744C81.936 18.3387 81.6107 17.7413 81.6107 16.952C81.6107 16.152 81.9307 15.5013 82.5707 15C83.2107 14.4987 84.0374 14.248 85.0507 14.248C86.064 14.248 87.0774 14.5893 88.0907 15.272L87.1947 16.872C86.448 16.36 85.7014 16.104 84.9547 16.104C84.2187 16.104 83.8507 16.3067 83.8507 16.712C83.8507 16.936 83.968 17.112 84.2027 17.24C84.4374 17.368 84.8267 17.5173 85.3707 17.688C85.9147 17.8587 86.2987 17.992 86.5227 18.088C86.7574 18.1733 87.0347 18.312 87.3547 18.504C87.952 18.8667 88.2507 19.4747 88.2507 20.328Z" fill="white"/>
</svg>
