<svg width="160" height="28" viewBox="0 0 160 28" fill="none" xmlns="http://www.w3.org/2000/svg">
<rect width="160" height="28" fill="black"/>
<path d="M34.7695 17.782V19H27.6575V9.2H34.5735V10.418H29.0575V13.428H33.9715V14.618H29.0575V17.782H34.7695ZM38.8727 19.084C38.266 19.084 37.6827 19.0047 37.1227 18.846C36.5627 18.678 36.124 18.468 35.8067 18.216L36.3667 17.152C36.6934 17.3853 37.09 17.572 37.5567 17.712C38.0234 17.852 38.4947 17.922 38.9707 17.922C40.1467 17.922 40.7347 17.586 40.7347 16.914C40.7347 16.69 40.6554 16.5127 40.4967 16.382C40.338 16.2513 40.1374 16.158 39.8947 16.102C39.6614 16.0367 39.3254 15.9667 38.8867 15.892C38.2894 15.7987 37.7994 15.6913 37.4167 15.57C37.0434 15.4487 36.7214 15.2433 36.4507 14.954C36.18 14.6647 36.0447 14.2587 36.0447 13.736C36.0447 13.064 36.3247 12.5273 36.8847 12.126C37.4447 11.7153 38.196 11.51 39.1387 11.51C39.6334 11.51 40.128 11.5707 40.6227 11.692C41.1174 11.8133 41.5234 11.9767 41.8407 12.182L41.2667 13.246C40.66 12.854 39.946 12.658 39.1247 12.658C38.5554 12.658 38.1214 12.7513 37.8227 12.938C37.524 13.1247 37.3747 13.372 37.3747 13.68C37.3747 13.9227 37.4587 14.114 37.6267 14.254C37.7947 14.394 38 14.4967 38.2427 14.562C38.4947 14.6273 38.8447 14.702 39.2927 14.786C39.89 14.8887 40.3707 15.0007 40.7347 15.122C41.108 15.234 41.4254 15.43 41.6867 15.71C41.948 15.99 42.0787 16.382 42.0787 16.886C42.0787 17.558 41.7894 18.0947 41.2107 18.496C40.6414 18.888 39.862 19.084 38.8727 19.084ZM46.9924 19.084C46.2364 19.084 45.5597 18.9207 44.9624 18.594C44.3744 18.2673 43.9124 17.8193 43.5764 17.25C43.2404 16.6713 43.0724 16.018 43.0724 15.29C43.0724 14.562 43.2404 13.9133 43.5764 13.344C43.9124 12.7653 44.3744 12.3173 44.9624 12C45.5597 11.6733 46.2364 11.51 46.9924 11.51C47.6644 11.51 48.2617 11.6453 48.7844 11.916C49.3164 12.1867 49.727 12.5787 50.0164 13.092L48.9944 13.75C48.761 13.3953 48.4717 13.1293 48.1264 12.952C47.781 12.7747 47.3984 12.686 46.9784 12.686C46.493 12.686 46.0544 12.7933 45.6624 13.008C45.2797 13.2227 44.9764 13.5307 44.7524 13.932C44.5377 14.324 44.4304 14.7767 44.4304 15.29C44.4304 15.8127 44.5377 16.2747 44.7524 16.676C44.9764 17.068 45.2797 17.3713 45.6624 17.586C46.0544 17.8007 46.493 17.908 46.9784 17.908C47.3984 17.908 47.781 17.8193 48.1264 17.642C48.4717 17.4647 48.761 17.1987 48.9944 16.844L50.0164 17.488C49.727 18.0013 49.3164 18.398 48.7844 18.678C48.2617 18.9487 47.6644 19.084 46.9924 19.084ZM53.0444 12.826C53.2778 12.3967 53.6231 12.07 54.0804 11.846C54.5378 11.622 55.0931 11.51 55.7464 11.51V12.812C55.6718 12.8027 55.5691 12.798 55.4384 12.798C54.7104 12.798 54.1364 13.0173 53.7164 13.456C53.3058 13.8853 53.1004 14.5013 53.1004 15.304V19H51.7564V11.58H53.0444V12.826ZM64.0405 15.332C64.0405 15.4347 64.0312 15.57 64.0125 15.738H57.9925C58.0765 16.3913 58.3612 16.9187 58.8465 17.32C59.3412 17.712 59.9525 17.908 60.6805 17.908C61.5672 17.908 62.2812 17.6093 62.8225 17.012L63.5645 17.88C63.2285 18.272 62.8085 18.5707 62.3045 18.776C61.8099 18.9813 61.2545 19.084 60.6385 19.084C59.8545 19.084 59.1592 18.9253 58.5525 18.608C57.9459 18.2813 57.4745 17.8287 57.1385 17.25C56.8119 16.6713 56.6485 16.018 56.6485 15.29C56.6485 14.5713 56.8072 13.9227 57.1245 13.344C57.4512 12.7653 57.8945 12.3173 58.4545 12C59.0239 11.6733 59.6632 11.51 60.3725 11.51C61.0819 11.51 61.7119 11.6733 62.2625 12C62.8225 12.3173 63.2565 12.7653 63.5645 13.344C63.8819 13.9227 64.0405 14.5853 64.0405 15.332ZM60.3725 12.644C59.7285 12.644 59.1872 12.84 58.7485 13.232C58.3192 13.624 58.0672 14.1373 57.9925 14.772H62.7525C62.6779 14.1467 62.4212 13.638 61.9825 13.246C61.5532 12.8447 61.0165 12.644 60.3725 12.644ZM72.3361 11.58L69.0881 19H67.7161L64.4681 11.58H65.8681L68.4161 17.53L71.0201 11.58H72.3361ZM80.0913 15.332C80.0913 15.4347 80.082 15.57 80.0633 15.738H74.0433C74.1273 16.3913 74.412 16.9187 74.8973 17.32C75.392 17.712 76.0033 17.908 76.7313 17.908C77.618 17.908 78.332 17.6093 78.8733 17.012L79.6153 17.88C79.2793 18.272 78.8593 18.5707 78.3553 18.776C77.8607 18.9813 77.3053 19.084 76.6893 19.084C75.9053 19.084 75.21 18.9253 74.6033 18.608C73.9967 18.2813 73.5253 17.8287 73.1893 17.25C72.8627 16.6713 72.6993 16.018 72.6993 15.29C72.6993 14.5713 72.858 13.9227 73.1753 13.344C73.502 12.7653 73.9453 12.3173 74.5053 12C75.0747 11.6733 75.714 11.51 76.4233 11.51C77.1327 11.51 77.7627 11.6733 78.3133 12C78.8733 12.3173 79.3073 12.7653 79.6153 13.344C79.9327 13.9227 80.0913 14.5853 80.0913 15.332ZM76.4233 12.644C75.7793 12.644 75.238 12.84 74.7993 13.232C74.37 13.624 74.118 14.1373 74.0433 14.772H78.8033C78.7287 14.1467 78.472 13.638 78.0333 13.246C77.604 12.8447 77.0673 12.644 76.4233 12.644ZM83.2456 12.826C83.4789 12.3967 83.8243 12.07 84.2816 11.846C84.7389 11.622 85.2943 11.51 85.9476 11.51V12.812C85.8729 12.8027 85.7703 12.798 85.6396 12.798C84.9116 12.798 84.3376 13.0173 83.9176 13.456C83.5069 13.8853 83.3016 14.5013 83.3016 15.304V19H81.9576V11.58H83.2456V12.826ZM94.6935 19.084C93.9375 19.084 93.2609 18.9207 92.6635 18.594C92.0755 18.2673 91.6135 17.8193 91.2775 17.25C90.9415 16.6713 90.7735 16.018 90.7735 15.29C90.7735 14.562 90.9415 13.9133 91.2775 13.344C91.6135 12.7653 92.0755 12.3173 92.6635 12C93.2609 11.6733 93.9375 11.51 94.6935 11.51C95.3655 11.51 95.9629 11.6453 96.4855 11.916C97.0175 12.1867 97.4282 12.5787 97.7175 13.092L96.6955 13.75C96.4622 13.3953 96.1729 13.1293 95.8275 12.952C95.4822 12.7747 95.0995 12.686 94.6795 12.686C94.1942 12.686 93.7555 12.7933 93.3635 13.008C92.9809 13.2227 92.6775 13.5307 92.4535 13.932C92.2389 14.324 92.1315 14.7767 92.1315 15.29C92.1315 15.8127 92.2389 16.2747 92.4535 16.676C92.6775 17.068 92.9809 17.3713 93.3635 17.586C93.7555 17.8007 94.1942 17.908 94.6795 17.908C95.0995 17.908 95.4822 17.8193 95.8275 17.642C96.1729 17.4647 96.4622 17.1987 96.6955 16.844L97.7175 17.488C97.4282 18.0013 97.0175 18.398 96.4855 18.678C95.9629 18.9487 95.3655 19.084 94.6935 19.084ZM100.746 12.826C100.979 12.3967 101.324 12.07 101.782 11.846C102.239 11.622 102.794 11.51 103.448 11.51V12.812C103.373 12.8027 103.27 12.798 103.14 12.798C102.412 12.798 101.838 13.0173 101.418 13.456C101.007 13.8853 100.802 14.5013 100.802 15.304V19H99.4576V11.58H100.746V12.826ZM105.104 11.58H106.448V19H105.104V11.58ZM106.63 8.682H108.338L105.986 10.502H104.726L106.63 8.682ZM113.186 18.566C112.99 18.734 112.748 18.8647 112.458 18.958C112.169 19.042 111.87 19.084 111.562 19.084C110.816 19.084 110.237 18.8833 109.826 18.482C109.416 18.0807 109.21 17.5067 109.21 16.76V12.686H107.95V11.58H109.21V9.956H110.554V11.58H112.682V12.686H110.554V16.704C110.554 17.1053 110.652 17.4133 110.848 17.628C111.054 17.8427 111.343 17.95 111.716 17.95C112.127 17.95 112.477 17.8333 112.766 17.6L113.186 18.566ZM114.811 11.58H116.155V19H114.811V11.58ZM115.483 10.152C115.222 10.152 115.002 10.068 114.825 9.9C114.657 9.732 114.573 9.52667 114.573 9.284C114.573 9.04133 114.657 8.836 114.825 8.668C115.002 8.49067 115.222 8.402 115.483 8.402C115.744 8.402 115.959 8.486 116.127 8.654C116.304 8.81267 116.393 9.01333 116.393 9.256C116.393 9.508 116.304 9.72267 116.127 9.9C115.959 10.068 115.744 10.152 115.483 10.152ZM121.955 19.084C121.199 19.084 120.523 18.9207 119.925 18.594C119.337 18.2673 118.875 17.8193 118.539 17.25C118.203 16.6713 118.035 16.018 118.035 15.29C118.035 14.562 118.203 13.9133 118.539 13.344C118.875 12.7653 119.337 12.3173 119.925 12C120.523 11.6733 121.199 11.51 121.955 11.51C122.627 11.51 123.225 11.6453 123.747 11.916C124.279 12.1867 124.69 12.5787 124.979 13.092L123.957 13.75C123.724 13.3953 123.435 13.1293 123.089 12.952C122.744 12.7747 122.361 12.686 121.941 12.686C121.456 12.686 121.017 12.7933 120.625 13.008C120.243 13.2227 119.939 13.5307 119.715 13.932C119.501 14.324 119.393 14.7767 119.393 15.29C119.393 15.8127 119.501 16.2747 119.715 16.676C119.939 17.068 120.243 17.3713 120.625 17.586C121.017 17.8007 121.456 17.908 121.941 17.908C122.361 17.908 122.744 17.8193 123.089 17.642C123.435 17.4647 123.724 17.1987 123.957 16.844L124.979 17.488C124.69 18.0013 124.279 18.398 123.747 18.678C123.225 18.9487 122.627 19.084 121.955 19.084ZM129.421 11.51C130.448 11.51 131.232 11.762 131.773 12.266C132.324 12.77 132.599 13.5213 132.599 14.52V19H131.325V18.02C131.101 18.3653 130.779 18.6313 130.359 18.818C129.949 18.9953 129.459 19.084 128.889 19.084C128.059 19.084 127.391 18.8833 126.887 18.482C126.393 18.0807 126.145 17.5533 126.145 16.9C126.145 16.2467 126.383 15.724 126.859 15.332C127.335 14.9307 128.091 14.73 129.127 14.73H131.255V14.464C131.255 13.8853 131.087 13.442 130.751 13.134C130.415 12.826 129.921 12.672 129.267 12.672C128.829 12.672 128.399 12.7467 127.979 12.896C127.559 13.036 127.205 13.2273 126.915 13.47L126.355 12.462C126.738 12.154 127.195 11.9207 127.727 11.762C128.259 11.594 128.824 11.51 129.421 11.51ZM129.113 18.048C129.627 18.048 130.07 17.936 130.443 17.712C130.817 17.4787 131.087 17.152 131.255 16.732V15.696H129.183C128.045 15.696 127.475 16.0787 127.475 16.844C127.475 17.2173 127.62 17.5113 127.909 17.726C128.199 17.9407 128.6 18.048 129.113 18.048Z" fill="white"/>
</svg>
