<svg width="160" height="28" viewBox="0 0 160 28" fill="none" xmlns="http://www.w3.org/2000/svg">
<rect width="160" height="28" fill="#61BFAD"/>
<path d="M47.8304 9.2H51.9604C52.9964 9.2 53.9157 9.40533 54.7184 9.816C55.521 10.2267 56.1417 10.8053 56.5804 11.552C57.0284 12.2893 57.2524 13.1387 57.2524 14.1C57.2524 15.0613 57.0284 15.9153 56.5804 16.662C56.1417 17.3993 55.521 17.9733 54.7184 18.384C53.9157 18.7947 52.9964 19 51.9604 19H47.8304V9.2ZM51.8764 17.782C52.6697 17.782 53.365 17.628 53.9624 17.32C54.569 17.012 55.0357 16.5827 55.3624 16.032C55.689 15.472 55.8524 14.828 55.8524 14.1C55.8524 13.372 55.689 12.7327 55.3624 12.182C55.0357 11.622 54.569 11.188 53.9624 10.88C53.365 10.572 52.6697 10.418 51.8764 10.418H49.2304V17.782H51.8764ZM65.9068 15.332C65.9068 15.4347 65.8974 15.57 65.8788 15.738H59.8588C59.9428 16.3913 60.2274 16.9187 60.7128 17.32C61.2074 17.712 61.8188 17.908 62.5468 17.908C63.4334 17.908 64.1474 17.6093 64.6888 17.012L65.4308 17.88C65.0948 18.272 64.6748 18.5707 64.1708 18.776C63.6761 18.9813 63.1208 19.084 62.5048 19.084C61.7208 19.084 61.0254 18.9253 60.4188 18.608C59.8121 18.2813 59.3408 17.8287 59.0048 17.25C58.6781 16.6713 58.5148 16.018 58.5148 15.29C58.5148 14.5713 58.6734 13.9227 58.9908 13.344C59.3174 12.7653 59.7608 12.3173 60.3208 12C60.8901 11.6733 61.5294 11.51 62.2388 11.51C62.9481 11.51 63.5781 11.6733 64.1288 12C64.6888 12.3173 65.1228 12.7653 65.4308 13.344C65.7481 13.9227 65.9068 14.5853 65.9068 15.332ZM62.2388 12.644C61.5948 12.644 61.0534 12.84 60.6148 13.232C60.1854 13.624 59.9334 14.1373 59.8588 14.772H64.6188C64.5441 14.1467 64.2874 13.638 63.8488 13.246C63.4194 12.8447 62.8828 12.644 62.2388 12.644ZM71.945 18.566C71.749 18.734 71.5064 18.8647 71.217 18.958C70.9277 19.042 70.629 19.084 70.321 19.084C69.5744 19.084 68.9957 18.8833 68.585 18.482C68.1744 18.0807 67.969 17.5067 67.969 16.76V12.686H66.709V11.58H67.969V9.956H69.313V11.58H71.441V12.686H69.313V16.704C69.313 17.1053 69.411 17.4133 69.607 17.628C69.8124 17.8427 70.1017 17.95 70.475 17.95C70.8857 17.95 71.2357 17.8333 71.525 17.6L71.945 18.566ZM76.2719 11.51C77.2986 11.51 78.0826 11.762 78.6239 12.266C79.1746 12.77 79.4499 13.5213 79.4499 14.52V19H78.1759V18.02C77.9519 18.3653 77.6299 18.6313 77.2099 18.818C76.7992 18.9953 76.3092 19.084 75.7399 19.084C74.9092 19.084 74.2419 18.8833 73.7379 18.482C73.2432 18.0807 72.9959 17.5533 72.9959 16.9C72.9959 16.2467 73.2339 15.724 73.7099 15.332C74.1859 14.9307 74.9419 14.73 75.9779 14.73H78.1059V14.464C78.1059 13.8853 77.9379 13.442 77.6019 13.134C77.2659 12.826 76.7712 12.672 76.1179 12.672C75.6792 12.672 75.2499 12.7467 74.8299 12.896C74.4099 13.036 74.0552 13.2273 73.7659 13.47L73.2059 12.462C73.5886 12.154 74.0459 11.9207 74.5779 11.762C75.1099 11.594 75.6746 11.51 76.2719 11.51ZM75.9639 18.048C76.4772 18.048 76.9206 17.936 77.2939 17.712C77.6672 17.4787 77.9379 17.152 78.1059 16.732V15.696H76.0339C74.8952 15.696 74.3259 16.0787 74.3259 16.844C74.3259 17.2173 74.4706 17.5113 74.7599 17.726C75.0492 17.9407 75.4506 18.048 75.9639 18.048ZM81.9371 8.612H83.2811V19H81.9371V8.612ZM85.8472 8.612H87.1912V19H85.8472V8.612ZM93.7194 11.51C94.6621 11.51 95.4087 11.7853 95.9594 12.336C96.5194 12.8773 96.7994 13.6753 96.7994 14.73V19H95.4554V14.884C95.4554 14.1653 95.2827 13.624 94.9374 13.26C94.5921 12.896 94.0974 12.714 93.4534 12.714C92.7254 12.714 92.1514 12.9287 91.7314 13.358C91.3114 13.778 91.1014 14.3847 91.1014 15.178V19H89.7574V8.612H91.1014V12.63C91.3814 12.2753 91.7454 12 92.1934 11.804C92.6507 11.608 93.1594 11.51 93.7194 11.51ZM106.034 15.332C106.034 15.4347 106.024 15.57 106.006 15.738H99.9857C100.07 16.3913 100.354 16.9187 100.84 17.32C101.334 17.712 101.946 17.908 102.674 17.908C103.56 17.908 104.274 17.6093 104.816 17.012L105.558 17.88C105.222 18.272 104.802 18.5707 104.298 18.776C103.803 18.9813 103.248 19.084 102.632 19.084C101.848 19.084 101.152 18.9253 100.546 18.608C99.939 18.2813 99.4677 17.8287 99.1317 17.25C98.805 16.6713 98.6417 16.018 98.6417 15.29C98.6417 14.5713 98.8004 13.9227 99.1177 13.344C99.4444 12.7653 99.8877 12.3173 100.448 12C101.017 11.6733 101.656 11.51 102.366 11.51C103.075 11.51 103.705 11.6733 104.256 12C104.816 12.3173 105.25 12.7653 105.558 13.344C105.875 13.9227 106.034 14.5853 106.034 15.332ZM102.366 12.644C101.722 12.644 101.18 12.84 100.742 13.232C100.312 13.624 100.06 14.1373 99.9857 14.772H104.746C104.671 14.1467 104.414 13.638 103.976 13.246C103.546 12.8447 103.01 12.644 102.366 12.644ZM110.028 19.084C109.421 19.084 108.838 19.0047 108.278 18.846C107.718 18.678 107.279 18.468 106.962 18.216L107.522 17.152C107.849 17.3853 108.245 17.572 108.712 17.712C109.179 17.852 109.65 17.922 110.126 17.922C111.302 17.922 111.89 17.586 111.89 16.914C111.89 16.69 111.811 16.5127 111.652 16.382C111.493 16.2513 111.293 16.158 111.05 16.102C110.817 16.0367 110.481 15.9667 110.042 15.892C109.445 15.7987 108.955 15.6913 108.572 15.57C108.199 15.4487 107.877 15.2433 107.606 14.954C107.335 14.6647 107.2 14.2587 107.2 13.736C107.2 13.064 107.48 12.5273 108.04 12.126C108.6 11.7153 109.351 11.51 110.294 11.51C110.789 11.51 111.283 11.5707 111.778 11.692C112.273 11.8133 112.679 11.9767 112.996 12.182L112.422 13.246C111.815 12.854 111.101 12.658 110.28 12.658C109.711 12.658 109.277 12.7513 108.978 12.938C108.679 13.1247 108.53 13.372 108.53 13.68C108.53 13.9227 108.614 14.114 108.782 14.254C108.95 14.394 109.155 14.4967 109.398 14.562C109.65 14.6273 110 14.702 110.448 14.786C111.045 14.8887 111.526 15.0007 111.89 15.122C112.263 15.234 112.581 15.43 112.842 15.71C113.103 15.99 113.234 16.382 113.234 16.886C113.234 17.558 112.945 18.0947 112.366 18.496C111.797 18.888 111.017 19.084 110.028 19.084Z" fill="black"/>
</svg>
