<svg width="196" height="39" viewBox="0 0 196 39" fill="none" xmlns="http://www.w3.org/2000/svg">
<path d="M1 14.5C1 7.44155 7.58612 1.5 16 1.5H180C188.414 1.5 195 7.44155 195 14.5V18C195 25.0584 188.414 31 180 31H16C7.58613 31 1 25.0584 1 18V14.5Z" stroke="white" stroke-width="2"/>
<path d="M187.584 26.022L181.178 20.4185C182.469 19.0133 183.174 17.2799 183.174 15.4503C183.174 13.3258 182.229 11.3299 180.512 9.8284C178.796 8.32602 176.514 7.49915 174.087 7.49915C171.66 7.49915 169.377 8.32602 167.662 9.8284C164.119 12.9285 164.119 17.9729 167.662 21.073C169.378 22.5745 171.66 23.4014 174.087 23.4014C176.177 23.4014 178.157 22.7845 179.764 21.6558L186.17 27.2593C186.365 27.4299 186.621 27.5156 186.877 27.5156C187.133 27.5156 187.389 27.4299 187.584 27.2593C187.975 26.9171 187.975 26.3641 187.584 26.022ZM169.076 19.8358C166.313 17.4173 166.313 13.4833 169.076 11.0665C170.414 9.8949 172.194 9.25002 174.087 9.25002C175.98 9.25002 177.76 9.8949 179.098 11.0665C180.437 12.2373 181.174 13.7948 181.174 15.4511C181.174 17.1084 180.437 18.665 179.098 19.8366C177.76 21.0074 175.98 21.6523 174.087 21.6523C172.194 21.6523 170.414 21.0065 169.076 19.8358Z" fill="white"/>
</svg>
