<svg width="83" height="32" viewBox="0 0 83 32" fill="none" xmlns="http://www.w3.org/2000/svg">
<rect width="83" height="32" rx="10" fill="#EFE8D8"/>
<path fill-rule="evenodd" clip-rule="evenodd" d="M8.32258 9.87097L18 16L8.32258 22.129L8 9.87097H8.32258Z" fill="#E54B4B" stroke="#E54B4B" stroke-width="2" stroke-linecap="round" stroke-linejoin="round"/>
<path d="M26.5568 13.3643H29.7038V22H31.5334V13.3643H34.6804V11.8182H26.5568V13.3643ZM35.3739 22H37.1737V17.5107C37.1737 16.5412 37.9045 15.8551 38.8938 15.8551C39.1971 15.8551 39.5749 15.9098 39.729 15.9595V14.304C39.565 14.2741 39.2816 14.2543 39.0827 14.2543C38.2077 14.2543 37.4769 14.7514 37.1985 15.6364H37.119V14.3636H35.3739V22ZM42.9718 22.1541C44.1699 22.1541 44.8858 21.5923 45.214 20.951H45.2736V22H47.0037V16.8892C47.0037 14.8707 45.3581 14.2642 43.9015 14.2642C42.2956 14.2642 41.0627 14.9801 40.665 16.3722L42.3453 16.6108C42.5243 16.0888 43.0314 15.6413 43.9114 15.6413C44.7466 15.6413 45.204 16.0689 45.204 16.8196V16.8494C45.204 17.3665 44.6621 17.3913 43.3148 17.5355C41.8333 17.6946 40.4164 18.1371 40.4164 19.8572C40.4164 21.3587 41.5151 22.1541 42.9718 22.1541ZM43.4391 20.8317C42.6884 20.8317 42.1515 20.4886 42.1515 19.8274C42.1515 19.1364 42.753 18.848 43.5584 18.7337C44.0307 18.669 44.9753 18.5497 45.209 18.3608V19.2607C45.209 20.1108 44.5229 20.8317 43.4391 20.8317ZM48.8134 22H50.6131V14.3636H48.8134V22ZM49.7182 13.2798C50.29 13.2798 50.7573 12.8423 50.7573 12.3054C50.7573 11.7635 50.29 11.326 49.7182 11.326C49.1415 11.326 48.6742 11.7635 48.6742 12.3054C48.6742 12.8423 49.1415 13.2798 49.7182 13.2798ZM54.2635 11.8182H52.4638V22H54.2635V11.8182ZM59.4949 22.1491C61.2747 22.1491 62.4977 21.2791 62.8159 19.9517L61.1355 19.7628C60.8919 20.4091 60.2953 20.7472 59.5197 20.7472C58.3564 20.7472 57.5858 19.9815 57.5708 18.674H62.8904V18.1222C62.8904 15.4425 61.2797 14.2642 59.4004 14.2642C57.2129 14.2642 55.786 15.87 55.786 18.2266C55.786 20.6229 57.193 22.1491 59.4949 22.1491ZM57.5758 17.4609C57.6305 16.4865 58.3514 15.6662 59.4252 15.6662C60.4593 15.6662 61.1554 16.4219 61.1653 17.4609H57.5758ZM64.413 22H66.2127V17.5107C66.2127 16.5412 66.9435 15.8551 67.9329 15.8551C68.2362 15.8551 68.614 15.9098 68.7681 15.9595V14.304C68.604 14.2741 68.3207 14.2543 68.1218 14.2543C67.2468 14.2543 66.516 14.7514 66.2376 15.6364H66.158V14.3636H64.413V22Z" fill="#E54B4B"/>
</svg>
