<svg width="23" height="21" viewBox="0 0 23 21" fill="none" xmlns="http://www.w3.org/2000/svg">
<path d="M22.584 19.022L16.178 13.4185C17.469 12.0133 18.174 10.2799 18.174 8.45027C18.174 6.32577 17.229 4.32989 15.512 2.8284C13.796 1.32602 11.514 0.499146 9.08701 0.499146C6.66001 0.499146 4.37701 1.32602 2.66201 2.8284C-0.880989 5.92852 -0.880989 10.9729 2.66201 14.073C4.37801 15.5745 6.66001 16.4014 9.08701 16.4014C11.177 16.4014 13.157 15.7845 14.764 14.6558L21.17 20.2593C21.365 20.4299 21.621 20.5156 21.877 20.5156C22.133 20.5156 22.389 20.4299 22.584 20.2593C22.975 19.9171 22.975 19.3641 22.584 19.022ZM4.07601 12.8358C1.31301 10.4173 1.31301 6.48327 4.07601 4.06652C5.41401 2.8949 7.19401 2.25002 9.08701 2.25002C10.98 2.25002 12.76 2.8949 14.098 4.06652C15.437 5.23727 16.174 6.79477 16.174 8.45114C16.174 10.1084 15.437 11.665 14.098 12.8366C12.76 14.0074 10.98 14.6523 9.08701 14.6523C7.19401 14.6523 5.41401 14.0065 4.07601 12.8358Z" fill="white"/>
</svg>
